<?xml version="1.0" encoding="utf-8"?>
<!-- Generator: Adobe Illustrator 16.0.0, SVG Export Plug-In . SVG Version: 6.00 Build 0)  -->
<!DOCTYPE svg PUBLIC "-//W3C//DTD SVG 1.1//EN" "http://www.w3.org/Graphics/SVG/1.1/DTD/svg11.dtd">
<svg version="1.1" id="Layer_1" xmlns="http://www.w3.org/2000/svg" xmlns:xlink="http://www.w3.org/1999/xlink" x="0px" y="0px"
	 width="157.07px" height="157.029px" viewBox="0 0 157.07 157.029" enable-background="new 0 0 157.07 157.029"
	 xml:space="preserve">
<path fill="#FFFFFF" d="M78.178,64.006c1.545-1.463,2.878-2.668,4.146-3.938c18.755-18.729,37.471-37.497,56.267-56.186
	c5.635-5.6,13.747-4.554,17.135,2.006c2.216,4.294,1.362,8.013-3.094,12.479C134.028,37.013,93.818,76.43,92.017,77.762
	c1.985,2.146,3.146,3.482,4.395,4.73c18.735,18.749,37.494,37.474,56.219,56.233c4.563,4.571,5.387,8.637,2.812,12.917
	c-4.026,6.689-10.941,7.494-16.752,1.717c-19.148-19.043-38.219-38.164-57.324-57.25c-0.933-0.933-1.916-1.814-3.209-3.034
	c-1.39,1.313-2.718,2.509-3.98,3.771c-18.751,18.732-37.479,37.488-56.246,56.205c-4.955,4.939-9.656,5.513-14.119,1.917
	c-4.981-4.014-5.379-10.905-0.654-15.678c12.668-12.792,25.43-25.49,38.167-38.215c7.396-7.39,14.817-14.753,22.433-22.332
	c-1.634-1.737-2.832-3.08-4.102-4.352C41.151,55.884,22.612,37.409,4.18,18.83c-1.668-1.682-3.392-3.877-3.835-6.086
	C-0.583,8.14,0.192,3.725,5.041,1.254c3.751-1.912,9.452-0.637,13.1,3.003C36.778,22.868,55.394,41.5,74.028,60.114
	C75.299,61.383,76.648,62.575,78.178,64.006z"/>
</svg>
