<?xml version="1.0" encoding="utf-8"?>
<!-- Generator: Adobe Illustrator 16.0.0, SVG Export Plug-In . SVG Version: 6.00 Build 0)  -->
<!DOCTYPE svg PUBLIC "-//W3C//DTD SVG 1.1//EN" "http://www.w3.org/Graphics/SVG/1.1/DTD/svg11.dtd">
<svg version="1.1" id="Layer_1" xmlns="http://www.w3.org/2000/svg" xmlns:xlink="http://www.w3.org/1999/xlink" x="0px" y="0px"
	 width="450.98px" height="406.35px" viewBox="0 0 450.98 406.35" enable-background="new 0 0 450.98 406.35" xml:space="preserve">
<g>
	<path fill-rule="evenodd" clip-rule="evenodd" fill="#FFFFFF" d="M225.249,406.35c1.599-1.52,2.931-2.732,4.203-4.006
		c59.745-59.748,119.508-119.479,179.204-179.275c9.862-9.879,19.051-20.271,25.931-32.636c13.89-24.971,19.02-51.613,15.138-79.739
		c-3.407-24.682-13.308-46.509-29.892-65.566C397.397,19.347,369.587,3.951,335.79,0.69c-36.909-3.562-69.957,6.592-97.879,31.693
		c-4.162,3.742-8.37,7.432-12.461,11.059c-0.599-0.291-0.951-0.371-1.175-0.585c-1.924-1.845-3.808-3.73-5.734-5.572
		c-14.328-13.692-30.665-24.173-49.419-30.726c-15.273-5.336-31.053-6.693-47.146-6.258c-19.147,0.519-37.082,5.563-53.791,14.5
		c-17.788,9.514-32.644,22.706-44.527,39.084C2.122,83.567-3.759,116.974,2.181,152.388c4.428,26.398,17.688,48.633,36.669,67.555
		c50.631,50.479,101.129,101.09,151.677,151.65C202.048,383.117,213.561,394.65,225.249,406.35z"/>
	<path fill-rule="evenodd" clip-rule="evenodd" fill="#E30613" d="M225.249,406.35c-11.688-11.699-23.201-23.232-34.722-34.756
		C139.979,321.033,89.481,270.422,38.85,219.943c-18.981-18.922-32.241-41.157-36.669-67.555
		c-5.94-35.414-0.059-68.821,21.477-98.503c11.883-16.378,26.739-29.57,44.527-39.084c16.709-8.937,34.644-13.981,53.791-14.5
		c16.092-0.435,31.872,0.921,47.146,6.258c18.754,6.553,35.091,17.034,49.419,30.726c1.927,1.842,3.811,3.728,5.734,5.572
		c0.224,0.214,0.576,0.294,1.175,0.585c4.091-3.627,8.299-7.317,12.461-11.059C265.833,7.282,298.881-2.872,335.79,0.69
		c33.797,3.261,61.607,18.657,84.043,44.437c16.584,19.057,26.484,40.884,29.892,65.566c3.882,28.126-1.248,54.768-15.138,79.739
		c-6.88,12.365-16.068,22.757-25.931,32.636c-59.696,59.797-119.459,119.527-179.204,179.275
		C228.18,403.617,226.848,404.83,225.249,406.35z"/>
</g>
</svg>
