<?xml version="1.0" encoding="utf-8"?>
<!-- Generator: Adobe Illustrator 16.0.0, SVG Export Plug-In . SVG Version: 6.00 Build 0)  -->
<!DOCTYPE svg PUBLIC "-//W3C//DTD SVG 1.1//EN" "http://www.w3.org/Graphics/SVG/1.1/DTD/svg11.dtd">
<svg version="1.1" id="Layer_1" xmlns="http://www.w3.org/2000/svg" xmlns:xlink="http://www.w3.org/1999/xlink" x="0px" y="0px"
	 width="450.98px" height="406.35px" viewBox="0 0 450.98 406.35" enable-background="new 0 0 450.98 406.35" xml:space="preserve">
<g>
	<path fill-rule="evenodd" clip-rule="evenodd" fill="#E30613" d="M225.249,406.35c-11.688-11.699-23.201-23.232-34.722-34.756
		C139.979,321.033,89.481,270.422,38.85,219.943c-18.981-18.922-32.241-41.157-36.669-67.555
		c-5.94-35.414-0.059-68.821,21.477-98.503c11.883-16.378,26.739-29.57,44.527-39.084c16.709-8.937,34.644-13.981,53.791-14.5
		c16.092-0.435,31.872,0.921,47.146,6.258c18.754,6.553,35.091,17.034,49.419,30.726c1.927,1.842,3.811,3.728,5.734,5.572
		c0.224,0.214,0.576,0.294,1.175,0.585c4.091-3.627,8.299-7.317,12.461-11.059C265.833,7.282,298.881-2.872,335.79,0.69
		c33.797,3.261,61.607,18.657,84.043,44.437c16.584,19.057,26.484,40.884,29.892,65.566c3.882,28.126-1.248,54.768-15.138,79.739
		c-6.88,12.365-16.068,22.757-25.931,32.636c-59.696,59.797-119.459,119.527-179.204,179.275
		C228.18,403.617,226.848,404.83,225.249,406.35z M225.274,362.98c1.145-1.002,1.919-1.605,2.607-2.293
		c54.906-54.932,109.93-109.746,164.632-164.878c16.194-16.324,25.414-36.535,26.949-59.486c2.32-34.684-9.991-63.546-37.437-85.229
		c-20.203-15.961-43.686-22.328-69.125-19.833c-24.872,2.44-45.876,13.445-63.114,31.644c-7.869,8.307-16.017,16.351-24.695,25.183
		c-1.798-2.214-2.911-3.911-4.334-5.286c-11.004-10.641-21.306-22.19-33.279-31.609c-23.147-18.209-49.816-23.978-78.836-18.315
		c-42.65,8.322-73.846,44.208-77.407,86.844c-2.567,30.734,7.885,57.106,29.625,78.898
		c53.324,53.454,106.728,106.829,160.104,160.229C222.249,360.135,223.587,361.365,225.274,362.98z"/>
</g>
</svg>
