<?xml version="1.0" encoding="utf-8"?>
<!-- Generator: Adobe Illustrator 16.0.0, SVG Export Plug-In . SVG Version: 6.00 Build 0)  -->
<!DOCTYPE svg PUBLIC "-//W3C//DTD SVG 1.1//EN" "http://www.w3.org/Graphics/SVG/1.1/DTD/svg11.dtd">
<svg version="1.1" id="Layer_1" xmlns="http://www.w3.org/2000/svg" xmlns:xlink="http://www.w3.org/1999/xlink" x="0px" y="0px"
	 width="321.65px" height="345.42px" viewBox="0 0 321.65 345.42" enable-background="new 0 0 321.65 345.42" xml:space="preserve">
<path fill-rule="evenodd" clip-rule="evenodd" fill="#FFFFFF" d="M0.283,171.98c0-48.435,0.745-96.888-0.305-145.301
	C-0.568,1.477,24.08-4.986,39.889,3.385c61.928,32.798,123.096,67.029,184.564,100.695c25.268,13.84,50.618,27.534,75.843,41.452
	c4.73,2.608,9.581,5.405,13.452,9.086c11.77,11.188,10.226,30.529-3.859,38.768c-25.957,15.18-52.436,29.476-78.814,43.928
	c-60.636,33.217-121.342,66.31-182.026,99.439c-3.933,2.147-7.784,4.533-11.918,6.204c-19.206,7.763-36.836-4.119-36.842-24.709
	C0.274,269.49,0.283,220.736,0.283,171.98z M34.144,41.615c0,100.784,0,160.9,0,261.382c91.741-50.19,151.99-80.245,244.217-130.701
	C185.697,121.608,125.436,91.554,34.144,41.615z"/>
</svg>
